<?xml version="1.0" encoding="UTF-8" standalone="no"?>
<svg width="24px" height="24px" viewBox="0 0 24 24" version="1.1" xmlns="http://www.w3.org/2000/svg" xmlns:xlink="http://www.w3.org/1999/xlink" xmlns:sketch="http://www.bohemiancoding.com/sketch/ns">
    <!-- Generator: Sketch 3.2.2 (9983) - http://www.bohemiancoding.com/sketch -->
    <title>codepen</title>
    <desc>Created with Sketch.</desc>
    <defs></defs>
    <g id="Welcome" stroke="none" stroke-width="1" fill="none" fill-rule="evenodd" sketch:type="MSPage">
        <g id="Mobile-Portrait" sketch:type="MSArtboardGroup" transform="translate(-88.000000, -414.000000)" fill="#FFFFFF">
            <g id="Social" sketch:type="MSLayerGroup" transform="translate(28.000000, 413.000000)">
                <path d="M60,16.65625 L60,9.34375 C60,8.97767674 60.1517842,8.69196531 60.4553571,8.48660714 L71.4241071,1.17410714 C71.6116081,1.05803513 71.8035704,1 72,1 C72.1964296,1 72.3883919,1.05803513 72.5758929,1.17410714 L83.5446429,8.48660714 C83.8482158,8.69196531 84,8.97767674 84,9.34375 L84,16.65625 C84,17.0223233 83.8482158,17.3080347 83.5446429,17.5133929 L72.5758929,24.8258929 C72.3883919,24.9419649 72.1964296,25 72,25 C71.8035704,25 71.6116081,24.9419649 71.4241071,24.8258929 L60.4553571,17.5133929 C60.1517842,17.3080347 60,17.0223233 60,16.65625 L60,16.65625 Z M62.0625,14.7276786 L64.6473214,13 L62.0625,11.2723214 L62.0625,14.7276786 Z M62.8928571,16.65625 L70.96875,22.0401786 L70.96875,17.2321429 L66.4955357,14.2455357 L62.8928571,16.65625 Z M62.8928571,9.34375 L66.4955357,11.7544643 L70.96875,8.76785714 L70.96875,3.95982143 L62.8928571,9.34375 Z M68.3571429,13 L72,15.4375 L75.6428571,13 L72,10.5625 L68.3571429,13 Z M73.03125,22.0401786 L81.1071429,16.65625 L77.5044643,14.2455357 L73.03125,17.2321429 L73.03125,22.0401786 Z M73.03125,8.76785714 L77.5044643,11.7544643 L81.1071429,9.34375 L73.03125,3.95982143 L73.03125,8.76785714 Z M79.3526786,13 L81.9375,14.7276786 L81.9375,11.2723214 L79.3526786,13 Z" id="codepen" sketch:type="MSShapeGroup"></path>
            </g>
        </g>
    </g>
</svg>