<?xml version="1.0" encoding="UTF-8" standalone="no"?>
<svg width="24px" height="24px" viewBox="0 0 24 24" version="1.1" xmlns="http://www.w3.org/2000/svg" xmlns:xlink="http://www.w3.org/1999/xlink" xmlns:sketch="http://www.bohemiancoding.com/sketch/ns">
    <!-- Generator: Sketch 3.2.2 (9983) - http://www.bohemiancoding.com/sketch -->
    <title>dribbble</title>
    <desc>Created with Sketch.</desc>
    <defs></defs>
    <g id="Welcome" stroke="none" stroke-width="1" fill="none" fill-rule="evenodd" sketch:type="MSPage">
        <g id="Mobile-Portrait" sketch:type="MSArtboardGroup" transform="translate(-208.000000, -414.000000)" fill="#FFFFFF">
            <g id="Social" sketch:type="MSLayerGroup" transform="translate(28.000000, 413.000000)">
                <path d="M180,13 C180,10.8229058 180.536453,8.81511336 181.609375,6.9765625 C182.682297,5.13801164 184.138012,3.68229703 185.976562,2.609375 C187.815113,1.53645297 189.822906,1 192,1 C194.177094,1 196.184887,1.53645297 198.023438,2.609375 C199.861988,3.68229703 201.317703,5.13801164 202.390625,6.9765625 C203.463547,8.81511336 204,10.8229058 204,13 C204,15.1770942 203.463547,17.1848866 202.390625,19.0234375 C201.317703,20.8619884 199.861988,22.317703 198.023438,23.390625 C196.184887,24.463547 194.177094,25 192,25 C189.822906,25 187.815113,24.463547 185.976562,23.390625 C184.138012,22.317703 182.682297,20.8619884 181.609375,19.0234375 C180.536453,17.1848866 180,15.1770942 180,13 L180,13 Z M181.75,13 C181.75,14.2916731 181.979164,15.5234316 182.4375,16.6953125 C182.895836,17.8671934 183.541662,18.916662 184.375,19.84375 C184.895836,18.916662 185.539059,18.0494832 186.304688,17.2421875 C187.070316,16.4348918 187.812496,15.7864608 188.53125,15.296875 C189.250004,14.8072892 189.929684,14.3854184 190.570312,14.03125 C191.210941,13.6770816 191.729165,13.4270841 192.125,13.28125 L192.703125,13.078125 C192.744792,13.0677083 192.8125,13.0494793 192.90625,13.0234375 C193,12.9973957 193.067708,12.9739584 193.109375,12.953125 C192.890624,12.4427058 192.614585,11.8645866 192.28125,11.21875 C189.04165,12.1875048 185.536477,12.671875 181.765625,12.671875 C181.755208,12.744792 181.75,12.8541659 181.75,13 L181.75,13 Z M181.96875,10.890625 C185.114599,10.890625 188.270818,10.4739625 191.4375,9.640625 C190.187494,7.42186391 188.916673,5.45313359 187.625,3.734375 C186.187493,4.41146172 184.968755,5.38020203 183.96875,6.640625 C182.968745,7.90104797 182.302085,9.31770047 181.96875,10.890625 L181.96875,10.890625 Z M185.46875,20.90625 C187.385426,22.4687578 189.562488,23.25 192,23.25 C193.375007,23.25 194.708327,22.9791694 196,22.4375 C195.562498,19.9270708 194.833338,17.3333467 193.8125,14.65625 L193.78125,14.65625 L193.75,14.671875 C193.583332,14.7343753 193.359376,14.820312 193.078125,14.9296875 C192.796874,15.039063 192.270837,15.2942688 191.5,15.6953125 C190.729163,16.0963562 190.015628,16.5234352 189.359375,16.9765625 C188.703122,17.4296898 188.020837,18.026038 187.3125,18.765625 C186.604163,19.505212 186.06771,20.2760377 185.703125,21.078125 L185.46875,20.90625 Z M189.515625,3.0625 C189.526042,3.05208328 189.536458,3.046875 189.546875,3.046875 C189.536458,3.046875 189.526042,3.05208328 189.515625,3.0625 L189.515625,3.0625 Z M189.578125,3.046875 C190.942715,4.81771719 192.223952,6.80728062 193.421875,9.015625 C194.140629,8.74479031 194.817705,8.4296893 195.453125,8.0703125 C196.088545,7.7109357 196.591144,7.39062641 196.960938,7.109375 C197.330731,6.82812359 197.671873,6.53125156 197.984375,6.21875 C198.296877,5.90624844 198.492187,5.69531305 198.570312,5.5859375 C198.648438,5.47656195 198.713541,5.38541703 198.765625,5.3125 C196.838532,3.60415813 194.583346,2.75 192,2.75 C191.208329,2.75 190.401046,2.84895734 189.578125,3.046875 L189.578125,3.046875 Z M194.203125,10.546875 C194.463543,11.0989611 194.692707,11.5937478 194.890625,12.03125 C194.911458,12.0937503 194.945312,12.1848952 194.992188,12.3046875 C195.039063,12.4244798 195.078125,12.5104164 195.109375,12.5625 C195.484377,12.5104164 195.872394,12.4739584 196.273438,12.453125 C196.674481,12.4322916 197.05729,12.421875 197.421875,12.421875 C197.78646,12.421875 198.145832,12.4296874 198.5,12.4453125 C198.854168,12.4609376 199.187498,12.4817707 199.5,12.5078125 C199.812502,12.5338543 200.106769,12.5624998 200.382812,12.59375 C200.658856,12.6250002 200.908853,12.658854 201.132812,12.6953125 C201.356772,12.731771 201.546874,12.7630207 201.703125,12.7890625 C201.859376,12.8151043 201.989583,12.8385416 202.09375,12.859375 L202.25,12.890625 C202.21875,10.4739463 201.442716,8.33855094 199.921875,6.484375 L199.90625,6.5 C199.8125,6.62500062 199.713542,6.75260352 199.609375,6.8828125 C199.505208,7.01302148 199.278648,7.24479 198.929688,7.578125 C198.580727,7.91146 198.210939,8.22656102 197.820312,8.5234375 C197.429686,8.82031398 196.908857,9.15885227 196.257812,9.5390625 C195.606768,9.91927273 194.921879,10.2552069 194.203125,10.546875 L194.203125,10.546875 Z M195.734375,14.171875 C196.64063,16.6614708 197.30729,19.1041547 197.734375,21.5 C198.890631,20.7187461 199.854163,19.7317768 200.625,18.5390625 C201.395837,17.3463482 201.895832,16.0416738 202.125,14.625 C199.937489,13.9999969 197.807302,13.8489567 195.734375,14.171875 L195.734375,14.171875 Z" id="dribbble" sketch:type="MSShapeGroup"></path>
            </g>
        </g>
    </g>
</svg>