<?xml version="1.0" encoding="UTF-8" standalone="no"?>
<svg width="24px" height="20px" viewBox="0 0 24 20" version="1.1" xmlns="http://www.w3.org/2000/svg" xmlns:xlink="http://www.w3.org/1999/xlink" xmlns:sketch="http://www.bohemiancoding.com/sketch/ns">
    <!-- Generator: Sketch 3.2.2 (9983) - http://www.bohemiancoding.com/sketch -->
    <title>github</title>
    <desc>Created with Sketch.</desc>
    <defs></defs>
    <g id="Welcome" stroke="none" stroke-width="1" fill="none" fill-rule="evenodd" sketch:type="MSPage">
        <g id="Mobile-Portrait" sketch:type="MSArtboardGroup" transform="translate(-148.000000, -416.000000)" fill="#FFFFFF">
            <g id="Social" sketch:type="MSLayerGroup" transform="translate(28.000000, 413.000000)">
                <path d="M120,14.1363636 C120,11.8920342 120.65384,10.017053 121.961538,8.51136364 C121.701922,7.7348446 121.572115,6.92992841 121.572115,6.09659091 C121.572115,4.99810057 121.817305,3.96591392 122.307692,3 C123.346159,3 124.259611,3.18702464 125.048077,3.56107955 C125.836542,3.93513445 126.745187,4.51988239 127.774038,5.31534091 C129.187507,4.98389986 130.673069,4.81818182 132.230769,4.81818182 C133.653853,4.81818182 134.999994,4.96969545 136.269231,5.27272727 C137.278851,4.49620824 138.177881,3.9232973 138.966346,3.55397727 C139.754812,3.18465724 140.663456,3 141.692308,3 C142.182695,3.96591392 142.427885,4.99810057 142.427885,6.09659091 C142.427885,6.92045866 142.298078,7.71590526 142.038462,8.48295455 C143.34616,9.99811364 144,11.8825645 144,14.1363636 C144,16.0966007 143.706734,17.6638199 143.120192,18.8380682 C142.754806,19.5672385 142.247599,20.196967 141.598558,20.7272727 C140.949516,21.2575784 140.271638,21.6647713 139.564904,21.9488636 C138.85817,22.232956 138.04087,22.457859 137.112981,22.6235795 C136.185092,22.7893001 135.360581,22.8934657 134.639423,22.9360795 C133.918266,22.9786934 133.115389,23 132.230769,23 C131.480765,23 130.79808,22.9857956 130.182692,22.9573864 C129.567305,22.9289771 128.858177,22.8697921 128.055288,22.7798295 C127.2524,22.689867 126.519234,22.5478229 125.855769,22.3536932 C125.192304,22.1595634 124.533657,21.9157212 123.879808,21.6221591 C123.225958,21.328597 122.644233,20.9450781 122.134615,20.4715909 C121.624997,19.9981037 121.21154,19.4536016 120.894231,18.8380682 C120.298074,17.6732896 120,16.1060705 120,14.1363636 L120,14.1363636 Z M123.230769,16.6363636 C123.230769,17.4697011 123.384614,18.1964931 123.692308,18.8167614 C124.000002,19.4370296 124.389421,19.9247141 124.860577,20.2798295 C125.331733,20.634945 125.918266,20.919033 126.620192,21.1321023 C127.322119,21.3451715 127.995189,21.4848482 128.639423,21.5511364 C129.283657,21.6174246 129.999996,21.6505682 130.788462,21.6505682 L133.211538,21.6505682 C134.000004,21.6505682 134.716343,21.6174246 135.360577,21.5511364 C136.004811,21.4848482 136.677881,21.3451715 137.379808,21.1321023 C138.081734,20.919033 138.668267,20.634945 139.139423,20.2798295 C139.610579,19.9247141 139.999998,19.4370296 140.307692,18.8167614 C140.615386,18.1964931 140.769231,17.4697011 140.769231,16.6363636 C140.769231,15.4999943 140.437503,14.5340949 139.774038,13.7386364 C139.110574,12.9431778 138.211544,12.5454545 137.076923,12.5454545 C136.68269,12.5454545 135.7452,12.6448854 134.264423,12.84375 C133.581727,12.9479172 132.826927,13 132,13 C131.173073,13 130.418273,12.9479172 129.735577,12.84375 C128.274031,12.6448854 127.336541,12.5454545 126.923077,12.5454545 C125.788456,12.5454545 124.889426,12.9431778 124.225962,13.7386364 C123.562497,14.5340949 123.230769,15.4999943 123.230769,16.6363636 L123.230769,16.6363636 Z M125.538462,16.6363636 C125.538462,16.2575739 125.598557,15.8693202 125.71875,15.4715909 C125.838943,15.0738616 126.045672,14.7140168 126.338942,14.3920455 C126.632213,14.0700741 126.980767,13.9090909 127.384615,13.9090909 C127.788464,13.9090909 128.137018,14.0700741 128.430288,14.3920455 C128.723559,14.7140168 128.930288,15.0738616 129.050481,15.4715909 C129.170674,15.8693202 129.230769,16.2575739 129.230769,16.6363636 C129.230769,17.0151534 129.170674,17.4034071 129.050481,17.8011364 C128.930288,18.1988656 128.723559,18.5587105 128.430288,18.8806818 C128.137018,19.2026531 127.788464,19.3636364 127.384615,19.3636364 C126.980767,19.3636364 126.632213,19.2026531 126.338942,18.8806818 C126.045672,18.5587105 125.838943,18.1988656 125.71875,17.8011364 C125.598557,17.4034071 125.538462,17.0151534 125.538462,16.6363636 L125.538462,16.6363636 Z M134.769231,16.6363636 C134.769231,16.2575739 134.829326,15.8693202 134.949519,15.4715909 C135.069712,15.0738616 135.276441,14.7140168 135.569712,14.3920455 C135.862982,14.0700741 136.211536,13.9090909 136.615385,13.9090909 C137.019233,13.9090909 137.367787,14.0700741 137.661058,14.3920455 C137.954328,14.7140168 138.161057,15.0738616 138.28125,15.4715909 C138.401443,15.8693202 138.461538,16.2575739 138.461538,16.6363636 C138.461538,17.0151534 138.401443,17.4034071 138.28125,17.8011364 C138.161057,18.1988656 137.954328,18.5587105 137.661058,18.8806818 C137.367787,19.2026531 137.019233,19.3636364 136.615385,19.3636364 C136.211536,19.3636364 135.862982,19.2026531 135.569712,18.8806818 C135.276441,18.5587105 135.069712,18.1988656 134.949519,17.8011364 C134.829326,17.4034071 134.769231,17.0151534 134.769231,16.6363636 L134.769231,16.6363636 Z" id="github" sketch:type="MSShapeGroup"></path>
            </g>
        </g>
    </g>
</svg>