<?xml version="1.0" encoding="UTF-8" standalone="no"?>
<svg width="18px" height="17px" viewBox="0 0 18 17" version="1.1" xmlns="http://www.w3.org/2000/svg" xmlns:xlink="http://www.w3.org/1999/xlink" xmlns:sketch="http://www.bohemiancoding.com/sketch/ns">
    <!-- Generator: Sketch 3.2.2 (9983) - http://www.bohemiancoding.com/sketch -->
    <title>linkedIn</title>
    <desc>Created with Sketch.</desc>
    <defs></defs>
    <g id="Welcome" stroke="none" stroke-width="1" fill="none" fill-rule="evenodd" sketch:type="MSPage">
        <g id="Mobile-Portrait" sketch:type="MSArtboardGroup" transform="translate(-272.000000, -415.000000)" fill="#FFFFFF">
            <g id="Social" sketch:type="MSLayerGroup" transform="translate(28.000000, 413.000000)">
                <path d="M244,3.98024523 C244,3.40894356 244.20117,2.93608271 244.603516,2.5616485 C245.005861,2.18721429 245.531247,2 246.179688,2 C246.828128,2 247.347654,2.18721429 247.738281,2.5616485 C248.128908,2.93608271 248.328125,3.40894356 248.335938,3.98024523 C248.34375,4.54382661 248.146486,5.01475742 247.744141,5.39305177 C247.341795,5.77134612 246.812503,5.96049046 246.15625,5.96049046 L246.132812,5.96049046 C245.492184,5.96049046 244.976564,5.77134612 244.585938,5.39305177 C244.195311,5.01475742 244,4.54382661 244,3.98024523 L244,3.98024523 Z M244.222656,19 L244.222656,7.52384196 L248.089844,7.52384196 L248.089844,19 L244.222656,19 Z M250.222656,19 C250.238281,15.9196031 250.246094,13.4221258 250.246094,11.5074932 C250.246094,9.59286054 250.242188,8.45027433 250.234375,8.07970027 L250.222656,7.52384196 L254.078125,7.52384196 L254.078125,9.19141689 L254.054688,9.19141689 C254.210938,8.94436752 254.371093,8.72820256 254.535156,8.54291553 C254.69922,8.3576285 254.91992,8.1569039 255.197266,7.94073569 C255.474611,7.72456749 255.814451,7.55665364 256.216797,7.4369891 C256.619143,7.31732456 257.066404,7.25749319 257.558594,7.25749319 C258.894538,7.25749319 259.968746,7.69561324 260.78125,8.57186649 C261.593754,9.44811973 262,10.7315992 262,12.4223433 L262,19 L258.144531,19 L258.144531,12.8623978 C258.144531,12.0517671 257.98633,11.4167825 257.669922,10.9574251 C257.353514,10.4980676 256.859378,10.2683924 256.1875,10.2683924 C255.69531,10.2683924 255.283205,10.4015654 254.951172,10.6679155 C254.619139,10.9342656 254.371095,11.2643032 254.207031,11.6580381 C254.121093,11.8896469 254.078125,12.2023141 254.078125,12.596049 L254.078125,19 L250.222656,19 Z" id="linkedIn" sketch:type="MSShapeGroup"></path>
            </g>
        </g>
    </g>
</svg>