<?xml version="1.0" encoding="UTF-8" standalone="no"?>
<svg width="24px" height="19px" viewBox="0 0 24 19" version="1.1" xmlns="http://www.w3.org/2000/svg" xmlns:xlink="http://www.w3.org/1999/xlink" xmlns:sketch="http://www.bohemiancoding.com/sketch/ns">
    <!-- Generator: Sketch 3.2.2 (9983) - http://www.bohemiancoding.com/sketch -->
    <title>twitter</title>
    <desc>Created with Sketch.</desc>
    <defs></defs>
    <g id="Welcome" stroke="none" stroke-width="1" fill="none" fill-rule="evenodd" sketch:type="MSPage">
        <g id="Mobile-Portrait" sketch:type="MSArtboardGroup" transform="translate(-28.000000, -416.000000)" fill="#FFFFFF">
            <g id="Social" sketch:type="MSLayerGroup" transform="translate(28.000000, 413.000000)">
                <path d="M1.18781726,19.9070312 C3.47209264,19.9070312 5.50760528,19.2242256 7.29441624,17.8585937 C6.22842107,17.838802 5.27411589,17.5196646 4.43147208,16.9011719 C3.58882827,16.2826792 3.01015386,15.4934944 2.69543147,14.5335937 C3.03045853,14.5830732 3.3401001,14.6078125 3.62436548,14.6078125 C4.06091589,14.6078125 4.49238365,14.553386 4.91878173,14.4445312 C3.7817202,14.2169259 2.84010525,13.6652388 2.09390863,12.7894531 C1.34771201,11.9136675 0.974619289,10.8968808 0.974619289,9.7390625 L0.974619289,9.6796875 C1.66497807,10.055731 2.40608741,10.2585936 3.19796954,10.2882813 C2.52791543,9.85286241 1.99492584,9.28385768 1.59898477,8.58125 C1.20304371,7.87864232 1.00507614,7.11667077 1.00507614,6.2953125 C1.00507614,5.42447481 1.22842416,4.61797246 1.6751269,3.87578125 C2.90355944,5.35026779 4.39846835,6.53033411 6.15989848,7.41601562 C7.9213286,8.30169714 9.80709655,8.79400992 11.8172589,8.89296875 C11.7360402,8.5169252 11.6954315,8.15078303 11.6954315,7.79453125 C11.6954315,6.46848295 12.1751221,5.3378953 13.1345178,4.40273437 C14.0939134,3.46757345 15.2538003,3 16.6142132,3 C18.0355401,3 19.2334977,3.50468245 20.2081218,4.5140625 C21.3147263,4.30624896 22.3553251,3.92031532 23.3299492,3.35625 C22.9543128,4.49427652 22.2335079,5.37499688 21.1675127,5.9984375 C22.1116798,5.89947867 23.0558328,5.65208531 24,5.25625 C23.3197936,6.22604652 22.4974668,7.05234034 21.5329949,7.73515625 C21.5431473,7.87369861 21.5482234,8.08150903 21.5482234,8.35859375 C21.5482234,9.64505852 21.3553319,10.9290301 20.9695431,12.2105469 C20.5837544,13.4920637 19.9974659,14.7216087 19.2106599,15.8992188 C18.4238539,17.0768288 17.4873151,18.1183548 16.4010152,19.0238281 C15.3147154,19.9293014 14.0050838,20.65169 12.4720812,21.1910156 C10.9390786,21.7303412 9.29950112,22 7.55329949,22 C4.8020167,22 2.28427538,21.2825593 0,19.8476562 C0.355331726,19.8872398 0.751266853,19.9070312 1.18781726,19.9070312 Z" id="twitter" sketch:type="MSShapeGroup"></path>
            </g>
        </g>
    </g>
</svg>